<svg width="22" height="18" viewBox="0 0 22 18" fill="none" xmlns="http://www.w3.org/2000/svg">
<path d="M8 11.75L14 5.75M18.5 9.5C18.5 8.83696 18.7634 8.20107 19.2322 7.73223C19.7011 7.26339 20.337 7 21 7V6C21 2 20 1 16 1H6C2 1 1 2 1 6V6.5C1.66304 6.5 2.29893 6.76339 2.76777 7.23223C3.23661 7.70107 3.5 8.33696 3.5 9C3.5 9.66304 3.23661 10.2989 2.76777 10.7678C2.29893 11.2366 1.66304 11.5 1 11.5V12C1 16 2 17 6 17H16C20 17 21 16 21 12C20.337 12 19.7011 11.7366 19.2322 11.2678C18.7634 10.7989 18.5 10.163 18.5 9.5Z" stroke="#D9D9D9" stroke-width="1.5" stroke-linecap="round" stroke-linejoin="round"/>
</svg>
