<svg width="22" height="25" viewBox="0 0 22 25" fill="none" xmlns="http://www.w3.org/2000/svg">
<path d="M21 23.346L19 21.1114M10.5 22.2287C11.7476 22.2287 12.9829 21.9541 14.1355 21.4207C15.2881 20.8873 16.3354 20.1054 17.2175 19.1198C18.0997 18.1342 18.7994 16.9641 19.2769 15.6763C19.7543 14.3885 20 13.0082 20 11.6143C20 10.2204 19.7543 8.8402 19.2769 7.55241C18.7994 6.26461 18.0997 5.0945 17.2175 4.10887C16.3354 3.12323 15.2881 2.34139 14.1355 1.80797C12.9829 1.27455 11.7476 1 10.5 1C7.98044 1 5.56408 2.11829 3.78249 4.10887C2.00089 6.09944 1 8.79924 1 11.6143C1 14.4294 2.00089 17.1292 3.78249 19.1198C5.56408 21.1104 7.98044 22.2287 10.5 22.2287Z" stroke="#6A536A" stroke-width="1.5" stroke-linecap="round" stroke-linejoin="round"/>
</svg>
